<svg width="37" height="36" viewBox="0 0 37 36" fill="none" xmlns="http://www.w3.org/2000/svg">
<g id="Logo/Google__G__Logo 1" clip-path="url(#clip0_40_284)">
<g id="Group">
<path id="Vector" d="M36.1175 18.405C36.1175 17.22 36.0125 16.095 35.8325 15H18.8825V21.765H28.5875C28.1525 23.985 26.8775 25.86 24.9875 27.135V31.635H30.7775C34.1675 28.5 36.1175 23.88 36.1175 18.405Z" fill="#4285F4"/>
<path id="Vector_2" d="M18.8825 36.0001C23.7425 36.0001 27.8075 34.3801 30.7775 31.6351L24.9875 27.1351C23.3675 28.2151 21.3125 28.8751 18.8825 28.8751C14.1875 28.8751 10.2125 25.7101 8.7875 21.4351H2.8175V26.0701C5.7725 31.9501 11.8475 36.0001 18.8825 36.0001Z" fill="#34A853"/>
<path id="Vector_3" d="M8.7875 21.4351C8.4125 20.3551 8.2175 19.2 8.2175 18C8.2175 16.8 8.4275 15.6451 8.7875 14.5651V9.93005H2.8175C1.5875 12.3601 0.8825 15.09 0.8825 18C0.8825 20.91 1.5875 23.6401 2.8175 26.0701L8.7875 21.4351Z" fill="#FBBC05"/>
<path id="Vector_4" d="M18.8825 7.125C21.5375 7.125 23.9075 8.04 25.7825 9.825L30.9125 4.695C27.8075 1.785 23.7425 0 18.8825 0C11.8475 0 5.7725 4.05 2.8175 9.93L8.7875 14.565C10.2125 10.29 14.1875 7.125 18.8825 7.125Z" fill="#EA4335"/>
</g>
</g>
<defs>
<clipPath id="clip0_40_284">
<rect width="36" height="36" fill="white" transform="translate(0.5)"/>
</clipPath>
</defs>
</svg>
