<svg width="33" height="33" viewBox="0 0 33 33" fill="none" xmlns="http://www.w3.org/2000/svg">
<g id="wpf:ask-question" clip-path="url(#clip0_38_684)">
<path id="Vector" d="M16.7493 0.749268C8.04156 0.749268 0.749252 7.00157 0.749252 14.9031C0.749252 18.6323 2.42187 21.9776 5.05694 24.4797C4.7359 25.3167 4.28117 26.0961 3.71048 26.7874C2.9534 27.7059 2.11694 28.5559 1.21079 29.3277C1.01204 29.4872 0.867681 29.7044 0.797633 29.9494C0.727584 30.1944 0.7353 30.4551 0.819716 30.6955C0.904132 30.9359 1.06109 31.1442 1.26892 31.2916C1.47675 31.439 1.72521 31.5183 1.98002 31.5185C4.70618 31.5185 6.66679 31.4877 8.44156 31.0188C10.0293 30.5979 11.3942 29.7167 12.7874 28.4797C14.0551 28.7837 15.3634 29.057 16.7493 29.057C25.4569 29.057 32.7493 22.8047 32.7493 14.9031C32.7493 7.00157 25.4569 0.749268 16.7493 0.749268ZM16.7493 3.21081C24.2877 3.21081 30.2877 8.52773 30.2877 14.9031C30.2877 21.2785 24.2877 26.5954 16.7493 26.5954C15.4089 26.5954 14.0169 26.364 12.7493 26.0182C12.5465 25.9672 12.3342 25.9687 12.1322 26.0226C11.9302 26.0764 11.7453 26.1808 11.5948 26.3259C10.2102 27.6539 9.18987 28.273 7.82618 28.6336C7.19848 28.7997 5.98741 28.7603 5.13325 28.8268C5.30556 28.6323 5.46679 28.529 5.63418 28.3259C6.60156 27.1443 7.48402 25.8951 7.74987 24.4797C7.78649 24.2673 7.76665 24.0489 7.69235 23.8465C7.61805 23.6441 7.49188 23.4648 7.32648 23.3265C4.74802 21.1973 3.21079 18.2127 3.21079 14.9031C3.21079 8.52773 9.21079 3.21081 16.7493 3.21081ZM14.4034 8.01819C14.1868 8.06681 13.9873 8.17313 13.8262 8.32588L11.98 10.0576L13.6342 11.8643L15.0951 10.4797H18.0563L19.2108 11.7893V13.5973L16.0563 15.7117C15.8877 15.8265 15.7503 15.9815 15.6564 16.1626C15.5625 16.3437 15.5151 16.5453 15.5185 16.7493V19.2108H17.98V17.441L21.1345 15.3265C21.3033 15.2116 21.4408 15.0564 21.5347 14.8751C21.6286 14.6938 21.6759 14.4919 21.6723 14.2877V11.3265C21.6707 11.029 21.5614 10.7422 21.3646 10.5191L19.5185 8.44158C19.4036 8.30939 19.2618 8.20325 19.1026 8.13024C18.9435 8.05723 18.7705 8.01903 18.5954 8.01819H14.6717C14.5825 8.00841 14.4926 8.00841 14.4034 8.01819ZM15.5185 20.4416V22.9031H17.98V20.4416H15.5185Z" fill="black"/>
</g>
<defs>
<clipPath id="clip0_38_684">
<rect width="32" height="32" fill="white" transform="translate(0.749252 0.749268)"/>
</clipPath>
</defs>
</svg>
